<svg xmlns="http://www.w3.org/2000/svg" width="62" height="78" viewBox="0 0 62 78">
    <g fill="#AFB0B1" fill-rule="evenodd">
        <path d="M43.613.635L61.16 18.173H43.613z"/>
        <path fill-rule="nonzero" d="M44 5.02H5.226v67.96h51.548V17.834L44 5.019zM5.226.634H44.91c.583 0 1.142.232 1.553.645l14.058 14.1c.41.41.64.967.64 1.547v56.054a4.386 4.386 0 0 1-4.388 4.384H5.226a4.386 4.386 0 0 1-4.387-4.384V5.019A4.386 4.386 0 0 1 5.226.635z"/>
        <path d="M10.71 36.808h39.484v4.385H10.71zM10.71 46.673h39.484v4.385H10.71zM10.71 56.538h39.484v4.385H10.71z"/>
    </g>
</svg>
