<svg xmlns="http://www.w3.org/2000/svg" width="233" height="40" viewBox="0 0 233 40">
    <g fill="none" fill-rule="nonzero">
        <path fill="#FFF" d="M45.373 37.813L32.497 6.962h9.035l7.646 19.287 7.595-19.288h9.035l-12.889 30.85h-7.508zM68.06 37.813V6.962h7.959v30.85zM81.437 37.813V6.962h7.996v23.912h9.923v6.938H81.462zM121.204 37.6l-11.061-13.225V37.6h-7.971V6.75h7.97v12.675l10.35-12.675h9.597l-12.626 14.438L130.727 37.6h-9.46zM149.935 37.813l-8.234-11.25v11.25h-7.97V6.962h13.176c5.669 0 8.897 3.875 8.897 9.137a8.753 8.753 0 0 1-7.158 8.275l10.862 13.438h-9.573zm-2.227-21.376c0-2.575-1.952-3.612-4.08-3.612h-2.014v7.5h2.014a3.756 3.756 0 0 0 2.92-1.022 3.748 3.748 0 0 0 1.16-2.866zM161.535 37.813V6.962h7.984v30.85h-7.971zM179.53 37.813V13.9h-7.409V6.962h22.737V13.9H187.5v23.913zM197.386 37.813V6.962h7.97v30.85zM220.035 38.362a18.914 18.914 0 0 1-5.919-.9 15.233 15.233 0 0 1-5.118-2.925l-.325-.274 4.217-6.663.425.5a13.115 13.115 0 0 0 3.93 2.6 7.753 7.753 0 0 0 4.842.512 5.485 5.485 0 0 0 1.452-.512c.378-.196.707-.473.963-.813.23-.315.348-.697.338-1.087.022-.69-.32-1.34-.9-1.713a10.078 10.078 0 0 0-2.641-1.25 93.152 93.152 0 0 0-3.591-1.075 17.392 17.392 0 0 1-3.754-1.5 8.944 8.944 0 0 1-2.929-2.5 7.02 7.02 0 0 1-1.25-4.25 8.842 8.842 0 0 1 1.075-4.412 9.791 9.791 0 0 1 2.84-3.162 12.682 12.682 0 0 1 4.055-1.888c1.525-.416 3.1-.626 4.68-.625 1.81-.004 3.612.24 5.356.725 1.122.32 2.195.791 3.19 1.4l.414.25-4.042 6.775-.438-.475a4.643 4.643 0 0 0-2.002-1.25 8.492 8.492 0 0 0-2.616-.45c-.496.005-.99.06-1.476.162-.49.103-.965.267-1.414.488-.391.186-.734.46-1.001.8a1.761 1.761 0 0 0-.35 1.125c-.032.662.299 1.289.863 1.638.81.503 1.685.89 2.603 1.15 1.092.333 2.265.666 3.516 1 1.274.333 2.502.824 3.654 1.462a8.631 8.631 0 0 1 2.89 2.6 7.556 7.556 0 0 1 1.177 4.413 9.122 9.122 0 0 1-3.88 7.737 12.332 12.332 0 0 1-4.079 1.862c-1.557.373-3.154.55-4.755.525z"/>
        <path fill="#1F94D2" d="M29.957 30.637C11.5 26.663 3.529 24.063 4.755 16.563c.926-1.35 1.827-2.712 2.69-4.012a4.77 4.77 0 0 0 .689 3.325c2.002 3.137 8.02 5 18.42 7.212l.9 2.088 2.503 5.462z"/>
        <path d="M7.27 13.025a4.784 4.784 0 0 0 .751 2.912c2.015 3.163 8.021 5 18.382 7.25l.075.163 3.266 7.112C11.574 26.538 3.716 24 4.868 16.637l2.402-3.6v-.012zm.4-1.05l-3.04 4.588c-1.251 7.837 7.508 10.4 25.552 14.274L26.578 23C13.327 20.125 6.344 17.875 7.683 12l-.012-.025z"/>
        <path fill="#A64687" d="M33.56 39.288a93.627 93.627 0 0 0-14.74-4.213 75.144 75.144 0 0 1-9.86-2.638C3.579 30.55.989 28.864.313 26.814c-.676-2.05.575-4.513 2.665-7.588l1.464-2.163C3.642 24.438 11.8 27 30.157 30.938l3.654 8.125a.187.187 0 0 1 0 .188.2.2 0 0 1-.163.1h-.075l-.012-.063z"/>
        <path d="M4.267 17.525c-.4 7.5 9.197 10 25.728 13.513l3.754 8.037a.062.062 0 0 1 0 .075.075.075 0 0 1-.076 0 93.665 93.665 0 0 0-14.765-4.225 75.006 75.006 0 0 1-9.848-2.637C3.716 30.413 1.15 28.75.488 26.738c-.663-2.013.576-4.438 2.653-7.5l1.251-1.776-.125.063zm.488-1.037L2.991 19.1c-4.543 6.712-4.48 9.7 6.044 13.4 8.584 3.013 12.863 2.5 24.6 6.862h.114a.325.325 0 0 0 .287-.462l-3.754-8.162C12.251 26.863 3.466 24.3 4.73 16.462l.025.026z"/>
        <path fill="#F6EE23" d="M26.366 22.813C16.18 20.6 10.286 18.8 8.346 15.762a4.708 4.708 0 0 1-.538-3.75c1.001-1.5 1.952-2.95 2.828-4.276-.325 4.226 4.618 6.25 12.651 8.238l3.079 6.838z"/>
        <path d="M10.486 8.175c0 3.987 4.905 6.012 12.651 7.887l3.016 6.563c-10.01-2.188-15.792-3.962-17.694-6.95a4.57 4.57 0 0 1-.538-3.6l2.565-3.9zm.338-.963l-3.14 4.763c-1.327 5.875 5.643 8.125 18.894 11l-3.266-7.125C14.641 13.762 10.048 11.613 10.8 7.2l.025.013z"/>
        <path fill="#F68220" d="M23.112 15.662c-8.083-1.962-12.914-4.087-12.15-8.437 2.227-3.387 3.854-5.9 4.417-6.8 0 5.425 1.189 6.4 3.641 6.425l4.092 8.813z"/>
        <path d="M15.241.838c.113 5.112 1.252 6.087 3.68 6.125l3.94 8.512C14.842 13.5 10.35 11.488 11.05 7.287c1.977-3.024 3.479-5.35 4.192-6.45zM15.48 0s-1.84 2.875-4.667 7.2c-.776 4.413 3.754 6.55 12.513 8.65-1.251-2.725-2.503-5.375-4.217-9.125-2.503 0-3.591-.938-3.591-6.712L15.479 0z"/>
    </g>
</svg>
